<svg width="144" height="48" viewBox="0 0 138 31" fill="none" xmlns="http://www.w3.org/2000/svg">
<path d="M20.99 24.259L3.05 11.884C1.232 10.63 1.85 8.01898 4.117 7.40498L23.184 2.22998C23.5879 2.08424 24.0207 2.03693 24.4466 2.09198C24.8724 2.14703 25.279 2.30285 25.6326 2.54651C25.9861 2.79017 26.2765 3.11464 26.4795 3.49299C26.6825 3.87134 26.7924 4.29266 26.8 4.72198L25.67 22.271C25.536 24.354 22.808 25.513 20.99 24.259Z" fill="#E9327C"/>
<path d="M15.3 27.314L4.73098 6.64504C4.48938 6.1722 4.38307 5.64181 4.42376 5.11238C4.46445 4.58295 4.65057 4.07504 4.96158 3.64467C5.2726 3.2143 5.69643 2.87818 6.18634 2.67338C6.67625 2.46858 7.2132 2.40306 7.73798 2.48405L27.325 5.50704C27.7759 5.57665 28.2039 5.7523 28.5738 6.01955C28.9436 6.28681 29.2447 6.63803 29.4524 7.04434C29.66 7.45065 29.7683 7.90044 29.7682 8.35674C29.7681 8.81303 29.6597 9.2628 29.452 9.66904L20.429 27.315C20.1867 27.7865 19.8191 28.1821 19.3666 28.4582C18.9141 28.7344 18.3943 28.8804 17.8642 28.8803C17.3341 28.8802 16.8143 28.734 16.3619 28.4577C15.9095 28.1813 15.5421 27.7856 15.3 27.314Z" fill="#1DACE3"/>
<path d="M26.752 5.41801L16.988 3.91101L5 7.16601L9.785 16.527L20.99 24.259C21.2372 24.4277 21.5091 24.5569 21.796 24.642L26.052 16.319L26.752 5.41801Z" fill="#001A49"/>
<path d="M76.209 7.83402C76.209 7.47109 76.3166 7.11632 76.5182 6.81455C76.7199 6.51279 77.0065 6.27759 77.3418 6.1387C77.6771 5.99982 78.046 5.96348 78.402 6.03428C78.7579 6.10509 79.0849 6.27986 79.3415 6.53648C79.5982 6.79311 79.7729 7.12008 79.8437 7.47603C79.9145 7.83199 79.8782 8.20095 79.7393 8.53625C79.6004 8.87155 79.3652 9.15814 79.0635 9.35977C78.7617 9.5614 78.4069 9.66902 78.044 9.66902C77.5588 9.66408 77.095 9.46916 76.7519 9.1261C76.4089 8.78303 76.2139 8.31916 76.209 7.83402ZM76.515 10.566H79.574V20.76H76.515V10.566Z" fill="#001A49"/>
<path d="M92.7839 15.663C92.8195 16.3368 92.7214 17.011 92.4955 17.6468C92.2695 18.2825 91.9201 18.8674 91.4674 19.3677C91.0146 19.8679 90.4674 20.2737 89.8572 20.5618C89.247 20.8498 88.5859 21.0144 87.9119 21.046C87.345 21.0768 86.7783 20.9812 86.2528 20.7661C85.7274 20.5509 85.2564 20.2216 84.8739 19.802V24.838H81.8159V10.566H84.8739V11.524C85.2565 11.1045 85.7275 10.7754 86.253 10.5604C86.7784 10.3455 87.3451 10.25 87.9119 10.281C88.5859 10.3125 89.2469 10.4769 89.8571 10.7648C90.4673 11.0528 91.0145 11.4585 91.4673 11.9587C91.9201 12.4589 92.2695 13.0436 92.4955 13.6794C92.7214 14.3151 92.8195 14.9892 92.7839 15.663ZM89.7259 15.663C89.7139 15.1857 89.5614 14.7226 89.2875 14.3315C89.0136 13.9405 88.6304 13.6389 88.186 13.4646C87.7415 13.2902 87.2555 13.2509 86.7888 13.3514C86.3221 13.4519 85.8953 13.6878 85.562 14.0296C85.2287 14.3714 85.0036 14.804 84.9149 15.2731C84.8262 15.7422 84.8779 16.2271 85.0634 16.667C85.2489 17.1069 85.56 17.4823 85.9578 17.7463C86.3557 18.0103 86.8225 18.151 87.2999 18.151C87.6278 18.1658 87.955 18.111 88.2602 17.9904C88.5654 17.8697 88.8416 17.6858 89.0707 17.4509C89.2998 17.2159 89.4766 16.9352 89.5896 16.627C89.7025 16.3189 89.749 15.9903 89.7259 15.663Z" fill="#001A49"/>
<path d="M102.223 17.7C102.223 20.045 100.184 21.044 97.9821 21.044C97.0926 21.1245 96.1993 20.9362 95.4179 20.5035C94.6365 20.0709 94.003 19.4137 93.5991 18.617L96.2491 17.109C96.3569 17.4773 96.5877 17.7974 96.9032 18.0158C97.2186 18.2342 97.5995 18.3377 97.9821 18.309C98.7161 18.309 99.0821 18.084 99.0821 17.677C99.0821 16.555 94.0671 17.147 94.0671 13.619C94.0671 11.397 95.9421 10.276 98.0671 10.276C98.8642 10.251 99.6533 10.4401 100.352 10.8237C101.052 11.2073 101.635 11.7713 102.042 12.457L99.4331 13.864C99.319 13.5964 99.1286 13.3683 98.8857 13.2083C98.6427 13.0482 98.358 12.9633 98.0671 12.964C97.5371 12.964 97.2111 13.164 97.2111 13.535C97.2081 14.705 102.223 13.93 102.223 17.7Z" fill="#001A49"/>
<path d="M113.4 10.566V20.76H110.342V19.8C109.989 20.2229 109.54 20.5561 109.033 20.7724C108.527 20.9886 107.976 21.0817 107.426 21.044C105.367 21.044 103.614 19.576 103.614 16.823V10.566H106.672V16.377C106.646 16.62 106.674 16.8657 106.753 17.0969C106.832 17.3281 106.96 17.5394 107.129 17.716C107.298 17.8926 107.503 18.0302 107.73 18.1193C107.958 18.2085 108.202 18.2469 108.446 18.232C109.567 18.232 110.346 17.58 110.346 16.132V10.566H113.4Z" fill="#001A49"/>
<path d="M130.928 14.5V20.76H127.87V14.766C127.87 13.747 127.38 13.094 126.402 13.094C125.382 13.094 124.812 13.808 124.812 15.011V20.76H121.753V14.766C121.753 13.747 121.264 13.094 120.285 13.094C119.266 13.094 118.695 13.808 118.695 15.011V20.76H115.637V10.566H118.7V11.5C119.017 11.0841 119.433 10.7543 119.91 10.5406C120.387 10.327 120.911 10.2364 121.432 10.277C121.955 10.2514 122.477 10.3619 122.945 10.5976C123.413 10.8333 123.812 11.1862 124.103 11.622C124.442 11.1661 124.891 10.8035 125.408 10.5683C125.925 10.3331 126.494 10.2328 127.06 10.277C129.4 10.281 130.928 11.952 130.928 14.5Z" fill="#001A49"/>
<path d="M133.519 10.503C134.773 10.503 135.789 9.4867 135.789 8.23301C135.789 6.97933 134.773 5.96301 133.519 5.96301C132.265 5.96301 131.249 6.97933 131.249 8.23301C131.249 9.4867 132.265 10.503 133.519 10.503Z" fill="#001A49"/>
<path d="M34.457 5.87695H37.516V20.76H34.457V5.87695ZM39.248 15.663C39.2447 14.5942 39.5585 13.5485 40.1498 12.6583C40.7411 11.768 41.5833 11.0732 42.5697 10.6619C43.5562 10.2506 44.6424 10.1412 45.6911 10.3476C46.7397 10.5541 47.7035 11.067 48.4604 11.8216C49.2173 12.5761 49.7333 13.5382 49.943 14.5862C50.1527 15.6342 50.0468 16.7208 49.6386 17.7085C49.2304 18.6962 48.5383 19.5406 47.6499 20.1347C46.7615 20.7288 45.7168 21.046 44.648 21.046C43.9382 21.0535 43.234 20.9196 42.5765 20.652C41.9191 20.3844 41.3215 19.9884 40.8188 19.4873C40.316 18.9861 39.9182 18.3898 39.6485 17.7332C39.3788 17.0766 39.2427 16.3728 39.248 15.663ZM46.996 15.663C46.984 15.2019 46.8364 14.7547 46.5715 14.3772C46.3067 13.9997 45.9364 13.7086 45.507 13.5404C45.0775 13.3723 44.6081 13.3344 44.1573 13.4317C43.7065 13.5289 43.2944 13.757 42.9725 14.0872C42.6506 14.4175 42.4333 14.8353 42.3476 15.2884C42.262 15.7416 42.3118 16.2099 42.491 16.6349C42.6701 17.0598 42.9706 17.4225 43.3548 17.6776C43.739 17.9327 44.1899 18.0688 44.651 18.069C44.9668 18.078 45.2811 18.0214 45.5739 17.9029C45.8668 17.7845 46.1319 17.6066 46.3526 17.3805C46.5733 17.1545 46.7448 16.8852 46.8562 16.5896C46.9676 16.2939 47.0166 15.9784 47 15.663H46.996ZM62.245 10.563V20.248C62.245 23.673 59.574 25.12 56.863 25.12C55.9088 25.192 54.9531 24.9999 54.1007 24.5647C53.2484 24.1296 52.5323 23.4681 52.031 22.653L54.64 21.144C54.8506 21.5694 55.1861 21.9204 55.6016 22.1501C56.0171 22.3797 56.4927 22.477 56.965 22.429C57.2665 22.4701 57.5733 22.4431 57.8629 22.3498C58.1525 22.2565 58.4174 22.0995 58.6382 21.8901C58.8589 21.6808 59.0298 21.4246 59.1383 21.1403C59.2468 20.8561 59.2901 20.5511 59.265 20.248V19.31C58.9068 19.748 58.4509 20.096 57.934 20.3261C57.417 20.5562 56.8533 20.662 56.288 20.635C54.9425 20.5931 53.666 20.0292 52.729 19.0626C51.792 18.096 51.268 16.8027 51.268 15.4565C51.268 14.1102 51.792 12.8169 52.729 11.8503C53.666 10.8837 54.9425 10.3198 56.288 10.278C56.8533 10.2509 57.417 10.3567 57.934 10.5868C58.4509 10.8169 58.9068 11.1649 59.265 11.603V10.563H62.245ZM59.269 15.456C59.2892 14.9636 59.1616 14.4765 58.9027 14.0572C58.6438 13.6379 58.2654 13.3056 57.8161 13.1031C57.3669 12.9006 56.8673 12.8371 56.3817 12.9208C55.8961 13.0045 55.4466 13.2315 55.091 13.5727C54.7354 13.9139 54.49 14.3536 54.3864 14.8353C54.2827 15.3171 54.3255 15.8188 54.5093 16.2761C54.693 16.7333 55.0094 17.1251 55.4176 17.4011C55.8258 17.6771 56.3073 17.8247 56.8 17.825C57.1213 17.8475 57.4438 17.8026 57.7467 17.6931C58.0496 17.5836 58.3262 17.4119 58.5588 17.189C58.7913 16.9662 58.9747 16.6971 59.097 16.3992C59.2193 16.1012 59.2779 15.7809 59.269 15.459V15.456ZM63.977 15.656C63.9737 14.5872 64.2875 13.5415 64.8788 12.6513C65.4701 11.761 66.3123 11.0662 67.2987 10.6549C68.2852 10.2436 69.3714 10.1342 70.4201 10.3406C71.4687 10.5471 72.4324 11.06 73.1894 11.8146C73.9463 12.5691 74.4623 13.5312 74.672 14.5792C74.8817 15.6272 74.7758 16.7138 74.3676 17.7015C73.9594 18.6892 73.2673 19.5336 72.3789 20.1277C71.4905 20.7218 70.4458 21.039 69.377 21.039C68.6678 21.0465 67.9642 20.9128 67.3072 20.6456C66.6502 20.3785 66.0529 19.9831 65.5503 19.4827C65.0476 18.9823 64.6497 18.3869 64.3796 17.731C64.1094 17.0752 63.9726 16.3722 63.977 15.663V15.656ZM71.725 15.656C71.7132 15.1947 71.5656 14.7471 71.3008 14.3692C71.0359 13.9914 70.6654 13.7001 70.2358 13.5317C69.8061 13.3633 69.3364 13.3254 68.8853 13.4227C68.4342 13.5199 68.0218 13.7481 67.6998 14.0785C67.3777 14.409 67.1602 14.8271 67.0746 15.2805C66.9889 15.7339 67.0389 16.2026 67.2182 16.6277C67.3976 17.0529 67.6983 17.4157 68.0828 17.6709C68.4674 17.926 68.9186 18.062 69.38 18.062C69.6949 18.0703 70.008 18.0136 70.2999 17.8953C70.5918 17.777 70.8561 17.5996 71.0763 17.3744C71.2964 17.1492 71.4677 16.8809 71.5793 16.5864C71.691 16.2919 71.7406 15.9775 71.725 15.663V15.656Z" fill="#001A49"/>
</svg>
